<svg width="177" height="51" viewBox="0 0 177 51" fill="none" xmlns="http://www.w3.org/2000/svg"><path fill="#333E47" d="M21.282.325l10.641 10.641L10.641 32.25 0 21.607z"/><path fill="#FF7B31" d="M42.564.325l10.641 10.641L31.923 32.25 21.282 21.607zM67.455 48.08c-.704 0-1.34-.159-1.909-.477a3.512 3.512 0 0 1-1.33-1.316 3.81 3.81 0 0 1-.476-1.898c0-.698.159-1.327.477-1.887a3.47 3.47 0 0 1 1.34-1.327 3.84 3.84 0 0 1 1.908-.477c.528 0 1.015.09 1.462.27.446.18.825.442 1.136.788l-.477.487c-.555-.573-1.255-.86-2.1-.86-.563 0-1.073.131-1.534.394-.46.262-.822.622-1.086 1.078a3.07 3.07 0 0 0-.385 1.534c0 .567.128 1.079.385 1.535.264.456.626.815 1.086 1.078.46.263.972.394 1.533.394.853 0 1.553-.29 2.101-.87l.477.486a3.114 3.114 0 0 1-1.147.799 3.88 3.88 0 0 1-1.461.27zM73.457 48.07a2.76 2.76 0 0 1-1.39-.353 2.619 2.619 0 0 1-.975-.995 2.87 2.87 0 0 1-.355-1.43c0-.533.118-1.01.355-1.431.237-.422.561-.75.974-.985a2.76 2.76 0 0 1 1.39-.353c.515 0 .979.118 1.391.353.413.235.735.563.965.985.237.421.355.898.355 1.43a2.87 2.87 0 0 1-.355 1.431c-.23.422-.552.753-.965.995a2.76 2.76 0 0 1-1.39.353zm0-.653c.379 0 .717-.087 1.015-.26a1.85 1.85 0 0 0 .71-.756c.17-.325.254-.695.254-1.11 0-.414-.084-.784-.254-1.109a1.783 1.783 0 0 0-.71-.747 1.926 1.926 0 0 0-1.015-.269c-.38 0-.72.09-1.025.27a1.87 1.87 0 0 0-.71.746c-.17.325-.255.695-.255 1.11 0 .414.085.784.254 1.109.176.325.413.577.71.757.305.172.647.259 1.026.259zM80.359 42.523c.67 0 1.2.2 1.593.601.4.395.6.972.6 1.732v3.162h-.722v-3.09c0-.566-.138-.998-.416-1.295-.277-.298-.673-.446-1.187-.446-.575 0-1.032.176-1.37.529-.332.345-.498.825-.498 1.44v2.862h-.72v-5.453h.69v1.005c.196-.331.467-.587.812-.767a2.56 2.56 0 0 1 1.218-.28zM85.939 48.07c-.433 0-.85-.062-1.248-.187-.393-.131-.7-.293-.924-.487l.325-.58c.223.18.504.328.842.445.338.11.69.166 1.056.166.487 0 .846-.076 1.076-.228a.756.756 0 0 0 .355-.663c0-.2-.064-.357-.193-.467a1.184 1.184 0 0 0-.487-.26 6.013 6.013 0 0 0-.782-.175 9.718 9.718 0 0 1-1.045-.25 1.611 1.611 0 0 1-.68-.445c-.183-.208-.274-.494-.274-.86 0-.457.186-.83.558-1.12.372-.29.89-.436 1.553-.436.345 0 .69.048 1.035.145.346.09.63.211.853.363l-.315.591c-.44-.31-.964-.466-1.573-.466-.46 0-.809.083-1.046.248a.77.77 0 0 0-.345.654.66.66 0 0 0 .193.497c.136.125.301.218.498.28.196.056.467.114.812.176a9.18 9.18 0 0 1 1.025.25c.257.082.477.224.66.424.182.2.274.477.274.83 0 .477-.197.857-.589 1.14-.386.277-.924.415-1.614.415zM92.286 47.686a1.41 1.41 0 0 1-.508.29 2.037 2.037 0 0 1-.619.094c-.5 0-.886-.138-1.157-.415-.27-.276-.406-.667-.406-1.171v-3.297h-.954v-.622h.954v-1.193h.72v1.193h1.625v.622h-1.624v3.255c0 .325.077.574.233.747.162.166.392.248.69.248.15 0 .291-.024.427-.072a1.06 1.06 0 0 0 .365-.207l.254.528zM94.288 43.633c.17-.367.42-.643.751-.83.338-.186.755-.28 1.249-.28v.715l-.173-.01c-.562 0-1.001.176-1.32.529-.318.352-.477.847-.477 1.483v2.778h-.72v-5.453h.69v1.068zM102.483 42.565v5.453h-.69v-.995c-.19.331-.45.59-.782.777-.331.18-.71.27-1.137.27-.697 0-1.248-.197-1.654-.591-.4-.4-.599-.985-.599-1.752v-3.162h.72v3.09c0 .573.14 1.008.417 1.306.277.297.673.445 1.188.445.561 0 1.004-.172 1.329-.518.325-.352.487-.84.487-1.462v-2.861h.721zM106.714 48.07a2.86 2.86 0 0 1-1.421-.353 2.55 2.55 0 0 1-.974-.984 2.927 2.927 0 0 1-.355-1.442c0-.532.118-1.009.355-1.43a2.55 2.55 0 0 1 .974-.985 2.86 2.86 0 0 1 1.421-.353c.461 0 .87.093 1.229.28.365.18.653.446.862.798l-.538.374a1.655 1.655 0 0 0-.67-.602 1.912 1.912 0 0 0-.883-.207c-.385 0-.734.09-1.045.27a1.847 1.847 0 0 0-.721.746 2.369 2.369 0 0 0-.254 1.11c0 .421.085.794.254 1.12.176.317.416.566.721.746.311.172.66.259 1.045.259.318 0 .613-.066.883-.197.271-.132.494-.332.67-.602l.538.374a2.088 2.088 0 0 1-.862.808 2.75 2.75 0 0 1-1.229.27zM113.092 47.686a1.404 1.404 0 0 1-.507.29 2.037 2.037 0 0 1-.619.094c-.501 0-.887-.138-1.158-.415-.27-.276-.406-.667-.406-1.171v-3.297h-.954v-.622h.954v-1.193h.721v1.193h1.624v.622h-1.624v3.255c0 .325.078.574.234.747.162.166.392.248.69.248a1.253 1.253 0 0 0 .792-.28l.253.53zM114.404 42.565h.721v5.453h-.721v-5.453zm.366-1.193a.506.506 0 0 1-.376-.155.516.516 0 0 1-.152-.373c0-.139.051-.26.152-.363a.506.506 0 0 1 .376-.156c.149 0 .274.052.375.156a.468.468 0 0 1 .153.352.526.526 0 0 1-.528.54zM119.313 48.07a2.76 2.76 0 0 1-1.391-.353 2.61 2.61 0 0 1-.974-.995 2.869 2.869 0 0 1-.356-1.43c0-.533.119-1.01.356-1.431.236-.422.561-.75.974-.985a2.76 2.76 0 0 1 1.391-.353c.514 0 .977.118 1.39.353.413.235.734.563.965.985.236.421.355.898.355 1.43 0 .533-.119 1.01-.355 1.431a2.553 2.553 0 0 1-.965.995 2.76 2.76 0 0 1-1.39.353zm0-.653c.379 0 .717-.087 1.015-.26.304-.18.541-.431.71-.756.169-.325.254-.695.254-1.11 0-.414-.085-.784-.254-1.109a1.784 1.784 0 0 0-.71-.747 1.926 1.926 0 0 0-1.015-.269c-.379 0-.721.09-1.026.27a1.874 1.874 0 0 0-.71.746 2.369 2.369 0 0 0-.254 1.11c0 .414.085.784.254 1.109.176.325.413.577.71.757.305.172.647.259 1.026.259zM126.214 42.523c.67 0 1.202.2 1.594.601.399.395.599.972.599 1.732v3.162h-.721v-3.09c0-.566-.138-.998-.416-1.295-.277-.298-.673-.446-1.187-.446-.576 0-1.032.176-1.371.529-.331.345-.497.825-.497 1.44v2.862h-.721v-5.453h.69v1.005a2 2 0 0 1 .812-.767c.352-.186.758-.28 1.218-.28zM138.319 48.142l-.853-.808c-.677.539-1.468.808-2.375.808-.514 0-.978-.082-1.391-.248-.413-.173-.737-.412-.974-.716a1.659 1.659 0 0 1-.345-1.026c0-.45.121-.843.365-1.182.25-.346.65-.674 1.198-.985a3.04 3.04 0 0 1-.558-.767 1.81 1.81 0 0 1-.173-.767c0-.353.091-.664.274-.934.183-.27.44-.476.772-.622a2.82 2.82 0 0 1 1.167-.228c.616 0 1.11.152 1.482.456.372.298.558.702.558 1.214 0 .373-.112.705-.335.995-.216.29-.568.57-1.056.84l1.3 1.233c.155-.331.274-.708.355-1.13l1.269.405c-.136.642-.352 1.192-.65 1.648l.833.788-.863 1.026zm-2.893-6.376c-.237 0-.426.063-.569.187a.62.62 0 0 0-.203.477c0 .145.038.283.112.415.074.124.22.293.437.508.345-.187.585-.353.72-.498a.72.72 0 0 0 .203-.487.562.562 0 0 0-.182-.436c-.122-.11-.295-.166-.518-.166zm-.223 5.112c.494 0 .937-.142 1.329-.425l-1.715-1.639c-.318.187-.545.37-.68.55a.986.986 0 0 0-.203.612c0 .27.115.487.345.653.23.166.538.249.924.249zM150.593 40.76v7.258h-.72v-5.806l-2.792 4.883h-.355l-2.791-4.852v5.775h-.721v-7.257h.619l3.086 5.38 3.055-5.38h.619zM152.756 42.565h.721v5.453h-.721v-5.453zm.366-1.193a.506.506 0 0 1-.376-.155.516.516 0 0 1-.152-.373c0-.139.051-.26.152-.363a.506.506 0 0 1 .376-.156c.148 0 .274.052.375.156a.467.467 0 0 1 .152.352.525.525 0 0 1-.527.54zM158.202 42.523c.67 0 1.202.2 1.594.601.399.395.599.972.599 1.732v3.162h-.721v-3.09c0-.566-.138-.998-.416-1.295-.277-.298-.673-.446-1.187-.446-.576 0-1.032.176-1.371.529-.331.345-.497.825-.497 1.44v2.862h-.721v-5.453h.69v1.005a2 2 0 0 1 .812-.767c.352-.186.758-.28 1.218-.28zM162.352 42.565h.72v5.453h-.72v-5.453zm.365-1.193a.506.506 0 0 1-.376-.155.516.516 0 0 1-.152-.373c0-.139.051-.26.152-.363a.506.506 0 0 1 .376-.156c.149 0 .274.052.376.156a.47.47 0 0 1 .152.352.529.529 0 0 1-.528.54zM167.798 42.523c.67 0 1.201.2 1.594.601.399.395.598.972.598 1.732v3.162h-.72v-3.09c0-.566-.139-.998-.416-1.295-.278-.298-.674-.446-1.188-.446-.575 0-1.032.176-1.37.529-.332.345-.498.825-.498 1.44v2.862h-.72v-5.453h.69v1.005c.196-.331.467-.587.812-.767.352-.186.758-.28 1.218-.28zM176.91 42.565v4.79c0 .926-.223 1.61-.67 2.052-.44.45-1.106.674-1.999.674-.494 0-.965-.076-1.411-.228-.44-.145-.799-.349-1.076-.611l.365-.56c.257.235.569.418.934.55a3.48 3.48 0 0 0 1.167.196c.677 0 1.174-.162 1.492-.487.318-.318.477-.816.477-1.493v-.695a2.173 2.173 0 0 1-.883.788c-.358.18-.758.27-1.197.27-.501 0-.958-.11-1.371-.332a2.555 2.555 0 0 1-.964-.944 2.757 2.757 0 0 1-.345-1.378 2.7 2.7 0 0 1 .345-1.369c.237-.4.558-.712.964-.933a2.82 2.82 0 0 1 1.371-.332c.453 0 .862.093 1.228.28.365.187.66.456.883.809v-1.047h.69zm-2.73 4.593c.385 0 .734-.083 1.045-.25.311-.172.552-.41.721-.715.176-.304.264-.65.264-1.036 0-.387-.088-.73-.264-1.027a1.747 1.747 0 0 0-.721-.705 2.08 2.08 0 0 0-1.045-.259c-.386 0-.735.083-1.046.249-.304.166-.545.4-.721.705-.169.304-.253.65-.253 1.037 0 .387.084.732.253 1.036.176.305.417.543.721.716.311.166.66.249 1.046.249z"/><path d="M81.907 13.054L92.835.001h7.24v32.297h-7.016V10.632L81.907 23.91 70.71 10.677v21.621h-6.97V.002h7.195l10.972 13.053zM138.483 6.648v8.355c0 1.827-.658 3.4-1.974 4.717-1.316 1.288-2.886 1.932-4.71 1.932h-.314l6.998 8.265v2.38h-7.178l-8.926-10.645-9.241.045c.09 0 .135.09.135.27-.06 0-.105-.016-.135-.046v10.377h-6.953V0h25.614c1.824 0 3.394.659 4.71 1.976 1.316 1.288 1.974 2.845 1.974 4.672zm-25.345.315v5.442h18.302V6.963h-18.302zM175.74 6.639v6.056c0 .837-.105 1.525-.315 2.063 1.05 1.316 1.575 2.722 1.575 4.217v6.684c0 1.824-.66 3.394-1.98 4.71-1.291 1.286-2.866 1.929-4.726 1.929h-25.701V0h24.485c1.831 0 3.391.658 4.681 1.974 1.321 1.286 1.981 2.84 1.981 4.665zm-24.17 12.74v5.92h18.364v-5.92H151.57zm0-12.381v5.383h17.103V6.998H151.57z" fill="#494949"/><path d="M81.907 13.054L92.835.001h7.24v32.297h-7.016V10.632L81.907 23.91 70.71 10.677v21.621h-6.97V.002h7.195l10.972 13.053zM138.483 6.648v8.355c0 1.827-.658 3.4-1.974 4.717-1.316 1.288-2.886 1.932-4.71 1.932h-.314l6.998 8.265v2.38h-7.178l-8.926-10.645-9.241.045c.09 0 .135.09.135.27-.06 0-.105-.016-.135-.046v10.377h-6.953V0h25.614c1.824 0 3.394.659 4.71 1.976 1.316 1.288 1.974 2.845 1.974 4.672zm-25.345.315v5.442h18.302V6.963h-18.302zM175.74 6.639v6.056c0 .837-.105 1.525-.315 2.063 1.05 1.316 1.575 2.722 1.575 4.217v6.684c0 1.824-.66 3.394-1.98 4.71-1.291 1.286-2.866 1.929-4.726 1.929h-25.701V0h24.485c1.831 0 3.391.658 4.681 1.974 1.321 1.286 1.981 2.84 1.981 4.665zm-24.17 12.74v5.92h18.364v-5.92H151.57zm0-12.381v5.383h17.103V6.998H151.57z" fill="#333E47"/></svg>