<svg width="76" height="76" viewBox="0 0 76 76" fill="none" xmlns="http://www.w3.org/2000/svg"><circle cx="38" cy="34" r="18" fill="#fff" filter="url(#a)"/><path fill-rule="evenodd" clip-rule="evenodd" d="M44.545 26.286h-13.09c-1.352 0-2.447 1.155-2.447 2.571L29 39.142c0 1.417 1.103 2.572 2.454 2.572h13.091c1.352 0 2.455-1.155 2.455-2.571V28.857c0-1.416-1.103-2.571-2.455-2.571zm-1.063 5.02a.882.882 0 0 0 .275-1.175.799.799 0 0 0-1.123-.294l-4.658 2.94-4.463-2.817a.797.797 0 0 0-1.123.292.88.88 0 0 0 .279 1.177l5.334 3.367.005-.009 5.474-3.48z" fill="#333E47"/><defs><filter id="a" x="0" y="0" width="76" height="76" filterUnits="userSpaceOnUse" color-interpolation-filters="sRGB"><feFlood flood-opacity="0" result="BackgroundImageFix"/><feColorMatrix in="SourceAlpha" values="0 0 0 0 0 0 0 0 0 0 0 0 0 0 0 0 0 0 127 0"/><feOffset dy="4"/><feGaussianBlur stdDeviation="10"/><feColorMatrix values="0 0 0 0 0 0 0 0 0 0 0 0 0 0 0 0 0 0 0.05 0"/><feBlend in2="BackgroundImageFix" result="effect1_dropShadow"/><feBlend in="SourceGraphic" in2="effect1_dropShadow" result="shape"/></filter></defs></svg>